<svg width="160" height="160" viewBox="0 0 160 160" fill="none" xmlns="http://www.w3.org/2000/svg">
  <rect width="160" height="160" rx="42" fill="url(#paint0_linear_2_1)"/>
  <rect x="14" y="14" width="132" height="132" rx="34" fill="url(#paint1_linear_2_1)" fill-opacity="0.18" stroke="rgba(255,255,255,0.28)"/>
  <path d="M44 42H60V92C60 102.667 55.5833 111.083 46.75 117.25C37.9167 123.417 27.3333 126.5 15 126.5V111.5C22.3333 111.5 28.625 109.875 33.875 106.625C40.625 102.458 44 97.5833 44 92V42Z" fill="white"/>
  <path d="M82 42H103C115.667 42 125.667 45.625 133 52.875C140.333 60.125 144 69.625 144 81.375C144 93.125 140.333 102.667 133 110C125.667 117.333 115.667 121 103 121H82V42ZM98 57V106H102C109.833 106 116.042 103.75 120.625 99.25C125.208 94.6667 127.5 88.7083 127.5 81.375C127.5 74.125 125.208 68.2083 120.625 63.625C116.042 59.2083 109.833 57 102 57H98Z" fill="#A9F1FF"/>
  <circle cx="121" cy="39" r="11" fill="#A9F1FF" fill-opacity="0.95"/>
  <defs>
    <linearGradient id="paint0_linear_2_1" x1="14" y1="12" x2="143" y2="155" gradientUnits="userSpaceOnUse">
      <stop stop-color="#0F7BFF"/>
      <stop offset="1" stop-color="#35D0FF"/>
    </linearGradient>
    <linearGradient id="paint1_linear_2_1" x1="30" y1="22" x2="130" y2="138" gradientUnits="userSpaceOnUse">
      <stop stop-color="white"/>
      <stop offset="1" stop-color="white" stop-opacity="0.1"/>
    </linearGradient>
  </defs>
</svg>
